<?xml version="1.0" encoding="utf-8"?>
<!-- Generator: Adobe Illustrator 19.1.0, SVG Export Plug-In . SVG Version: 6.00 Build 0)  -->
<svg version="1.1" id="Layer_1" xmlns="http://www.w3.org/2000/svg" xmlns:xlink="http://www.w3.org/1999/xlink" x="0px" y="0px"
	 viewBox="-950 954 48 48" style="enable-background:new -950 954 48 48;" xml:space="preserve">
<style type="text/css">
	.st0{fill:none;}
	.st1{fill:#ED792C;}
</style>
<path class="st0" d="M-950,954h48v48h-48V954z"/>
<path class="st1" d="M-912,962h-28c-2.2,0-4,1.8-4,4v24c0,2.2,1.8,4,4,4h28c2.2,0,4-1.8,4-4v-24C-908,963.8-909.8,962-912,962z
	 M-928,976h-3v-1h-4v6h4v-1h3v2c0,1.1-0.9,2-2,2h-6c-1.1,0-2-0.9-2-2v-8c0-1.1,0.9-2,2-2h6c1.1,0,2,0.9,2,2V976z M-914,976h-3v-1h-4
	v6h4v-1h3v2c0,1.1-0.9,2-2,2h-6c-1.1,0-2-0.9-2-2v-8c0-1.1,0.9-2,2-2h6c1.1,0,2,0.9,2,2V976z"/>
</svg>
