<?xml version="1.0" encoding="utf-8"?>
<!-- Generator: Adobe Illustrator 19.1.0, SVG Export Plug-In . SVG Version: 6.00 Build 0)  -->
<svg version="1.1" id="Layer_1" xmlns="http://www.w3.org/2000/svg" xmlns:xlink="http://www.w3.org/1999/xlink" x="0px" y="0px"
	 viewBox="-475 477 48 48" style="enable-background:new -475 477 48 48;" xml:space="preserve">
<style type="text/css">
	.st0{fill:none;}
	.st1{fill:#FFFFFF;}
</style>
<path class="st0" d="M-475,477h48v48h-48V477z"/>
<path class="st1" d="M-437,485h-28c-2.2,0-4,1.8-4,4v24c0,2.2,1.8,4,4,4h28c2.2,0,4-1.8,4-4v-24C-433,486.8-434.8,485-437,485z
	 M-453,499h-3v-1h-4v6h4v-1h3v2c0,1.1-0.9,2-2,2h-6c-1.1,0-2-0.9-2-2v-8c0-1.1,0.9-2,2-2h6c1.1,0,2,0.9,2,2V499z M-439,499h-3v-1h-4
	v6h4v-1h3v2c0,1.1-0.9,2-2,2h-6c-1.1,0-2-0.9-2-2v-8c0-1.1,0.9-2,2-2h6c1.1,0,2,0.9,2,2V499z"/>
</svg>
