<?xml version="1.0" encoding="utf-8"?>
<!-- Generator: Adobe Illustrator 19.1.0, SVG Export Plug-In . SVG Version: 6.00 Build 0)  -->
<svg version="1.1" id="Layer_1" xmlns="http://www.w3.org/2000/svg" xmlns:xlink="http://www.w3.org/1999/xlink" x="0px" y="0px"
	 viewBox="-950 954 48 48" style="enable-background:new -950 954 48 48;" xml:space="preserve">
<style type="text/css">
	.st0{clip-path:url(#SVGID_2_);fill:#ED792C;}
</style>
<g>
	<g>
		<defs>
			<rect id="SVGID_1_" x="-950" y="954" width="48" height="48"/>
		</defs>
		<clipPath id="SVGID_2_">
			<use xlink:href="#SVGID_1_"  style="overflow:visible;"/>
		</clipPath>
		<path class="st0" d="M-942,980c0,8.8,7.2,16,16,16s16-7.2,16-16h-4c0,6.6-5.4,12-12,12s-12-5.4-12-12s5.4-12,12-12v8l10-10l-10-10
			v8C-934.8,964-942,971.2-942,980z M-928.4,986h-1.6v-6.6l-2,0.6v-1.4l3.6-1.2h0.2v8.6H-928.4z M-919.8,982.4c0,0.6,0,1.2-0.2,1.6
			l-0.6,1.2c0,0-0.6,0.6-1,0.6c-0.4,0-0.8,0.2-1.2,0.2c-0.4,0-0.8,0-1.2-0.2c-0.4-0.2-0.6-0.4-1-0.6c-0.4-0.2-0.4-0.6-0.6-1.2
			s-0.2-1-0.2-1.6V981c0-0.6,0-1.2,0.2-1.6l0.6-1.2c0,0,0.6-0.6,1-0.6c0.4,0,0.8-0.2,1.2-0.2s0.8,0,1.2,0.2c0.4,0.2,0.6,0.4,1,0.6
			c0.4,0.2,0.4,0.6,0.6,1.2c0.2,0.6,0.2,1,0.2,1.6V982.4z M-921.4,980.8v-1c0,0-0.2-0.4-0.2-0.6c0-0.2-0.2-0.2-0.4-0.4
			c-0.2-0.2-0.4-0.2-0.6-0.2c-0.2,0-0.4,0-0.6,0.2l-0.4,0.4c0,0-0.2,0.4-0.2,0.6v4c0,0,0.2,0.4,0.2,0.6c0,0.2,0.2,0.2,0.4,0.4
			s0.4,0.2,0.6,0.2c0.2,0,0.4,0,0.6-0.2l0.4-0.4c0,0,0.2-0.4,0.2-0.6V980.8z"/>
	</g>
</g>
</svg>
