<?xml version="1.0" encoding="utf-8"?>
<!-- Generator: Adobe Illustrator 19.1.0, SVG Export Plug-In . SVG Version: 6.00 Build 0)  -->
<svg version="1.1" id="Layer_1" xmlns="http://www.w3.org/2000/svg" xmlns:xlink="http://www.w3.org/1999/xlink" x="0px" y="0px"
	 viewBox="-475 477 48 48" style="enable-background:new -475 477 48 48;" xml:space="preserve">
<style type="text/css">
	.st0{clip-path:url(#SVGID_2_);fill:#FFFFFF;}
</style>
<g>
	<defs>
		<rect id="SVGID_1_" x="-475" y="477" width="48" height="48"/>
	</defs>
	<clipPath id="SVGID_2_">
		<use xlink:href="#SVGID_1_"  style="overflow:visible;"/>
	</clipPath>
	<path class="st0" d="M-467,503c0,8.8,7.2,16,16,16s16-7.2,16-16h-4c0,6.6-5.4,12-12,12s-12-5.4-12-12s5.4-12,12-12v8l10-10l-10-10
		v8C-459.8,487-467,494.2-467,503z M-453.4,509h-1.6v-6.6l-2,0.6v-1.4l3.6-1.2h0.2v8.6H-453.4z M-444.8,505.4c0,0.6,0,1.2-0.2,1.6
		l-0.6,1.2c0,0-0.6,0.6-1,0.6s-0.8,0.2-1.2,0.2c-0.4,0-0.8,0-1.2-0.2c-0.4-0.2-0.6-0.4-1-0.6c-0.4-0.2-0.4-0.6-0.6-1.2
		c-0.2-0.6-0.2-1-0.2-1.6V504c0-0.6,0-1.2,0.2-1.6l0.6-1.2c0,0,0.6-0.6,1-0.6s0.8-0.2,1.2-0.2c0.4,0,0.8,0,1.2,0.2
		c0.4,0.2,0.6,0.4,1,0.6c0.4,0.2,0.4,0.6,0.6,1.2s0.2,1,0.2,1.6C-444.8,504-444.8,505.4-444.8,505.4z M-446.4,503.8v-1
		c0,0-0.2-0.4-0.2-0.6c0-0.2-0.2-0.2-0.4-0.4c-0.2-0.2-0.4-0.2-0.6-0.2c-0.2,0-0.4,0-0.6,0.2l-0.4,0.4c0,0-0.2,0.4-0.2,0.6v4
		c0,0,0.2,0.4,0.2,0.6c0,0.2,0.2,0.2,0.4,0.4c0.2,0.2,0.4,0.2,0.6,0.2c0.2,0,0.4,0,0.6-0.2l0.4-0.4c0,0,0.2-0.4,0.2-0.6V503.8z"/>
</g>
</svg>
