<?xml version="1.0" encoding="utf-8"?>
<!-- Generator: Adobe Illustrator 19.1.0, SVG Export Plug-In . SVG Version: 6.00 Build 0)  -->
<svg version="1.1" id="Layer_1" xmlns="http://www.w3.org/2000/svg" xmlns:xlink="http://www.w3.org/1999/xlink" x="0px" y="0px"
	 viewBox="-475 477 48 48" style="enable-background:new -475 477 48 48;" xml:space="preserve">
<style type="text/css">
	.st0{fill:none;}
	.st1{fill:#FFFFFF;}
</style>
<path class="st0" d="M-475,477h48v48h-48V477z"/>
<path class="st1" d="M-448.9,496.6l-6.1-4.6v18l6.1-4.6l5.9-4.4L-448.9,496.6z M-448.9,496.6l-6.1-4.6v18l6.1-4.6l5.9-4.4
	L-448.9,496.6z M-448.9,496.6l-6.1-4.6v18l6.1-4.6l5.9-4.4L-448.9,496.6z M-453,485.1v-4c-4,0.4-7.7,2-10.6,4.4l2.8,2.9
	C-458.6,486.7-455.9,485.5-453,485.1z M-463.6,491.2l-2.9-2.8c-2.4,3-4,6.6-4.4,10.6h4C-466.5,496.1-465.3,493.4-463.6,491.2z
	 M-466.9,503h-4c0.4,4,2,7.7,4.4,10.6l2.9-2.9C-465.3,508.6-466.5,505.9-466.9,503z M-463.6,516.5c3,2.4,6.6,4,10.6,4.4v-4
	c-2.9-0.4-5.6-1.5-7.8-3.2C-460.8,513.6-463.6,516.5-463.6,516.5z M-431,501c0,10.3-7.8,18.8-17.9,19.9v-4c7.8-1,13.9-7.8,13.9-15.9
	s-6.1-14.8-13.9-15.9v-4C-438.8,482.2-431,490.7-431,501z"/>
</svg>
