<?xml version="1.0" encoding="utf-8"?>
<!-- Generator: Adobe Illustrator 19.1.0, SVG Export Plug-In . SVG Version: 6.00 Build 0)  -->
<svg version="1.1" id="Layer_1" xmlns="http://www.w3.org/2000/svg" xmlns:xlink="http://www.w3.org/1999/xlink" x="0px" y="0px"
	 viewBox="-475 477 48 48" style="enable-background:new -475 477 48 48;" xml:space="preserve">
<style type="text/css">
	.st0{clip-path:url(#SVGID_2_);fill:#FFFFFF;}
</style>
<g>
	<defs>
		<rect id="SVGID_1_" x="-475" y="477" width="48" height="48"/>
	</defs>
	<clipPath id="SVGID_2_">
		<use xlink:href="#SVGID_1_"  style="overflow:visible;"/>
	</clipPath>
	<path class="st0" d="M-451,487v-8l-10,10l10,10v-8c6.6,0,12,5.4,12,12s-5.4,12-12,12s-12-5.4-12-12h-4c0,8.8,7.2,16,16,16
		s16-7.2,16-16S-442.2,487-451,487z M-453.2,509h-1.8v-6.6l-2,0.6v-1.4l3.6-1.2h0.2C-453.2,500.4-453.2,509-453.2,509z
		 M-444.6,505.4c0,0.6,0,1.2-0.2,1.6l-0.6,1.2c0,0-0.6,0.6-1,0.6s-0.8,0.2-1.2,0.2s-0.8,0-1.2-0.2c-0.4-0.2-0.6-0.4-1-0.6
		c-0.4-0.2-0.4-0.6-0.6-1.2c-0.2-0.6-0.2-1-0.2-1.6V504c0-0.6,0-1.2,0.2-1.6l0.6-1.2c0,0,0.6-0.6,1-0.6c0.4,0,0.8-0.2,1.2-0.2
		s0.8,0,1.2,0.2c0.4,0.2,0.6,0.4,1,0.6c0.4,0.2,0.4,0.6,0.6,1.2c0.2,0.6,0.2,1,0.2,1.6C-444.6,504-444.6,505.4-444.6,505.4z
		 M-446.4,503.8v-1c0,0-0.2-0.4-0.2-0.6c0-0.2-0.2-0.2-0.4-0.4c-0.2-0.2-0.4-0.2-0.6-0.2c-0.2,0-0.4,0-0.6,0.2l-0.4,0.4
		c0,0-0.2,0.4-0.2,0.6v4c0,0,0.2,0.4,0.2,0.6c0,0.2,0.2,0.2,0.4,0.4c0.2,0.2,0.4,0.2,0.6,0.2c0.2,0,0.4,0,0.6-0.2l0.4-0.4
		c0,0,0.2-0.4,0.2-0.6V503.8z"/>
</g>
</svg>
