<?xml version="1.0" encoding="utf-8"?>
<!-- Generator: Adobe Illustrator 19.1.0, SVG Export Plug-In . SVG Version: 6.00 Build 0)  -->
<svg version="1.1" id="Layer_1" xmlns="http://www.w3.org/2000/svg" xmlns:xlink="http://www.w3.org/1999/xlink" x="0px" y="0px"
	 viewBox="-475 477 48 48" style="enable-background:new -475 477 48 48;" xml:space="preserve">
<style type="text/css">
	.st0{fill:#FFFFFF;}
	.st1{fill:none;}
</style>
<path class="st0" d="M-442,501c0-3.5-2-6.6-5-8.1v4.4l4.9,4.9C-442,501.9-442,501.4-442,501z M-437,501c0,1.9-0.4,3.6-1.1,5.3l3,3
	c1.3-2.5,2.1-5.3,2.1-8.3c0-8.6-6-15.7-14-17.5v4.1C-441.2,489.3-437,494.7-437,501z M-466.5,483l-2.5,2.5l9.5,9.5h-9.5v12h8l10,10
	v-13.5l8.5,8.5c-1.3,1-2.8,1.9-4.5,2.4v4.1c2.8-0.6,5.3-1.9,7.4-3.6l4.1,4.1l2.5-2.5l-18-18L-466.5,483z M-451,485l-4.2,4.2l4.2,4.2
	V485z"/>
<path class="st1" d="M-475,477h48v48h-48V477z"/>
</svg>
